<svg xmlns="http://www.w3.org/2000/svg" width="1200" height="700" viewBox="0 0 1200 700">
  <defs>
    <linearGradient id="bg" x1="0" y1="0" x2="1" y2="1">
      <stop offset="0" stop-color="#0b1220"/>
      <stop offset="1" stop-color="#111827"/>
    </linearGradient>
    <linearGradient id="acc" x1="0" y1="0" x2="1" y2="0">
      <stop offset="0" stop-color="#ef4444"/>
      <stop offset="1" stop-color="#f97316"/>
    </linearGradient>
    <filter id="glow" x="-20%" y="-20%" width="140%" height="140%">
      <feGaussianBlur stdDeviation="6" result="blur"/>
      <feMerge>
        <feMergeNode in="blur"/>
        <feMergeNode in="SourceGraphic"/>
      </feMerge>
    </filter>
  </defs>
  <rect width="1200" height="700" rx="36" fill="url(#bg)"/>
  <rect x="60" y="60" width="1080" height="580" rx="28" fill="#0f172a" stroke="url(#acc)" stroke-width="6"/>
  <circle cx="120" cy="120" r="10" fill="#ef4444"/><circle cx="160" cy="120" r="10" fill="#f59e0b"/><circle cx="200" cy="120" r="10" fill="#22c55e"/>
  <text x="100" y="210" fill="#e5e7eb" font-family="Arial, sans-serif" font-size="56" font-weight="800">Emergency Room</text>
  <text x="100" y="255" fill="#94a3b8" font-family="Arial, sans-serif" font-size="26">Placeholder — replace with your real photo</text>
  <path d="M120 340 C 260 260, 420 420, 560 340 S 860 420, 1040 340" fill="none" stroke="url(#acc)" stroke-width="10" stroke-linecap="round" opacity="0.9" filter="url(#glow)"/>
  <g opacity="0.85">
    <rect x="110" y="400" width="320" height="180" rx="18" fill="#111827" stroke="#334155"/>
    <rect x="460" y="400" width="320" height="180" rx="18" fill="#111827" stroke="#334155"/>
    <rect x="810" y="400" width="320" height="180" rx="18" fill="#111827" stroke="#334155"/>
  </g>
</svg>