<svg xmlns="http://www.w3.org/2000/svg" width="1200" height="700" viewBox="0 0 1200 700">
  <defs>
    <linearGradient id="g" x1="0" x2="1" y1="0" y2="1">
      <stop offset="0" stop-color="#0f172a"/>
      <stop offset="1" stop-color="#111827"/>
    </linearGradient>
    <filter id="shadow" x="-20%" y="-20%" width="140%" height="140%">
      <feDropShadow dx="0" dy="14" stdDeviation="18" flood-color="#000" flood-opacity="0.35"/>
    </filter>
  </defs>
  <rect width="1200" height="700" rx="44" fill="url(#g)"/>
  <circle cx="980" cy="130" r="220" fill="#6366F1" opacity="0.15"/>
  <circle cx="220" cy="610" r="260" fill="#6366F1" opacity="0.10"/>
  <g filter="url(#shadow)">
    <rect x="90" y="110" width="1020" height="480" rx="34" fill="#0b1220" opacity="0.82" stroke="#1f2937"/>
  </g>

  <g font-family="Vazirmatn, system-ui, -apple-system, Segoe UI, Arial" fill="#e5e7eb">
    <text x="130" y="210" font-size="44" font-weight="800">سالن امتحان</text>
    <text x="130" y="270" font-size="26" opacity="0.85">Exam hall: invigilator, students writing</text>
  </g>

  <g opacity="0.9">
    <rect x="130" y="320" width="310" height="18" rx="9" fill="#6366F1" opacity="0.9"/>
    <rect x="130" y="360" width="520" height="14" rx="7" fill="#94a3b8" opacity="0.25"/>
    <rect x="130" y="395" width="470" height="14" rx="7" fill="#94a3b8" opacity="0.20"/>
    <rect x="130" y="430" width="560" height="14" rx="7" fill="#94a3b8" opacity="0.16"/>
    <rect x="130" y="465" width="420" height="14" rx="7" fill="#94a3b8" opacity="0.14"/>
  </g>

  <g>
    <rect x="760" y="320" width="300" height="210" rx="26" fill="#0f172a" stroke="#334155"/>
    <path d="M820 500 L900 360 L980 500 Z" fill="#6366F1" opacity="0.25"/>
    <circle cx="935" cy="395" r="46" fill="#6366F1" opacity="0.22"/>
    <rect x="800" y="350" width="220" height="16" rx="8" fill="#cbd5e1" opacity="0.18"/>
    <rect x="800" y="380" width="170" height="12" rx="6" fill="#cbd5e1" opacity="0.14"/>
    <rect x="800" y="405" width="195" height="12" rx="6" fill="#cbd5e1" opacity="0.12"/>
  </g>

  <g font-family="Vazirmatn, system-ui" fill="#94a3b8" font-size="18">
    <text x="90" y="650">Placeholder • Replace with your real photo (same filename).</text>
  </g>
</svg>