<svg xmlns="http://www.w3.org/2000/svg" width="1200" height="700" viewBox="0 0 1200 700">
  <defs>
    <linearGradient id="bg" x1="0" y1="0" x2="1" y2="1">
      <stop offset="0" stop-color="#0b1220"/>
      <stop offset="1" stop-color="#111827"/>
    </linearGradient>
    <filter id="shadow" x="-20%" y="-20%" width="140%" height="140%">
      <feGaussianBlur stdDeviation="6" result="blur"/>
      <feOffset dy="2" result="off"/>
      <feMerge><feMergeNode in="off"/><feMergeNode in="SourceGraphic"/></feMerge>
    </filter>
  </defs>
  <rect width="1200" height="700" rx="36" fill="url(#bg)"/>
  <text x="80" y="110" fill="#e5e7eb" font-family="Arial, sans-serif" font-size="44" font-weight="800">Water Purification Process</text>
  <text x="80" y="150" fill="#94a3b8" font-family="Arial, sans-serif" font-size="22">IELTS Writing Task 1 — Process Diagram (placeholder style)</text>

  <rect x="80" y="190" width="1040" height="440" rx="18" fill="#0f172a" stroke="#334155"/>
  <g font-family="Arial, sans-serif" fill="#e5e7eb">
    <rect x="150" y="290" width="200" height="90" rx="16" fill="#111827" stroke="#334155" filter="url(#shadow)"/>
    <text x="250" y="345" text-anchor="middle" font-size="18">Intake</text>

    <rect x="430" y="290" width="200" height="90" rx="16" fill="#111827" stroke="#334155" filter="url(#shadow)"/>
    <text x="530" y="340" text-anchor="middle" font-size="18">Filtration</text>

    <rect x="710" y="290" width="200" height="90" rx="16" fill="#111827" stroke="#334155" filter="url(#shadow)"/>
    <text x="810" y="340" text-anchor="middle" font-size="18">UV Treatment</text>

    <rect x="430" y="430" width="200" height="90" rx="16" fill="#111827" stroke="#334155" filter="url(#shadow)"/>
    <text x="530" y="485" text-anchor="middle" font-size="18">Storage</text>

    <!-- arrows -->
    <path d="M350 335 L430 335" stroke="#22c55e" stroke-width="8" stroke-linecap="round"/>
    <path d="M630 335 L710 335" stroke="#22c55e" stroke-width="8" stroke-linecap="round"/>
    <path d="M810 380 L810 430" stroke="#22c55e" stroke-width="8" stroke-linecap="round"/>
    <path d="M710 475 L630 475" stroke="#22c55e" stroke-width="8" stroke-linecap="round"/>
  </g>
</svg>