<svg xmlns="http://www.w3.org/2000/svg" width="1200" height="700" viewBox="0 0 1200 700">
  <defs>
    <linearGradient id="bg" x1="0" y1="0" x2="1" y2="1">
      <stop offset="0" stop-color="#0b1220"/>
      <stop offset="1" stop-color="#111827"/>
    </linearGradient>
    <filter id="glow" x="-30%" y="-30%" width="160%" height="160%">
      <feGaussianBlur stdDeviation="5" result="blur"/>
      <feMerge><feMergeNode in="blur"/><feMergeNode in="SourceGraphic"/></feMerge>
    </filter>
  </defs>
  <rect width="1200" height="700" rx="36" fill="url(#bg)"/>
  <text x="80" y="110" fill="#e5e7eb" font-family="Arial, sans-serif" font-size="44" font-weight="800">Average Temperature by Month</text>
  <text x="80" y="150" fill="#94a3b8" font-family="Arial, sans-serif" font-size="22">IELTS Writing Task 1 — Line Graph (placeholder style)</text>

  <rect x="80" y="190" width="1040" height="440" rx="18" fill="#0f172a" stroke="#334155"/>
  <!-- axes -->
  <line x1="150" y1="590" x2="150" y2="240" stroke="#64748b" stroke-width="3"/>
  <line x1="150" y1="590" x2="1060" y2="590" stroke="#64748b" stroke-width="3"/>

  <!-- y labels -->
  <g fill="#94a3b8" font-family="Arial, sans-serif" font-size="16">
    <text x="105" y="590">0</text>
    <text x="98" y="520">5</text>
    <text x="92" y="450">10</text>
    <text x="92" y="380">15</text>
    <text x="92" y="310">20</text>
    <text x="92" y="240">25</text>
  </g>

  <!-- x labels -->
  <g fill="#94a3b8" font-family="Arial, sans-serif" font-size="16">
    <text x="190" y="620">Jan</text><text x="260" y="620">Feb</text><text x="330" y="620">Mar</text>
    <text x="400" y="620">Apr</text><text x="470" y="620">May</text><text x="540" y="620">Jun</text>
    <text x="610" y="620">Jul</text><text x="680" y="620">Aug</text><text x="750" y="620">Sep</text>
    <text x="820" y="620">Oct</text><text x="890" y="620">Nov</text><text x="960" y="620">Dec</text>
  </g>

  <!-- line -->
  <path d="M200 520 L270 500 L340 460 L410 410 L480 360 L550 320 L620 300 L690 310 L760 350 L830 400 L900 460 L970 500"
        fill="none" stroke="#22c55e" stroke-width="8" stroke-linecap="round" stroke-linejoin="round" filter="url(#glow)"/>
  <!-- points -->
  <g fill="#22c55e">
    <circle cx="200" cy="520" r="7"/><circle cx="270" cy="500" r="7"/><circle cx="340" cy="460" r="7"/>
    <circle cx="410" cy="410" r="7"/><circle cx="480" cy="360" r="7"/><circle cx="550" cy="320" r="7"/>
    <circle cx="620" cy="300" r="7"/><circle cx="690" cy="310" r="7"/><circle cx="760" cy="350" r="7"/>
    <circle cx="830" cy="400" r="7"/><circle cx="900" cy="460" r="7"/><circle cx="970" cy="500" r="7"/>
  </g>
</svg>